<svg width="120" height="120" viewBox="0 0 120 120" fill="none" xmlns="http://www.w3.org/2000/svg">
<g clip-path="url(#clip0)">
<path d="M47.551 120H73.0204C74.1925 120 75.1429 119.041 75.1429 117.857C75.1429 116.674 74.1925 115.714 73.0204 115.714H47.551C46.3789 115.714 45.4286 116.674 45.4286 117.857C45.4286 119.041 46.3789 120 47.551 120Z" fill="white"/>
<path d="M60.2857 105C56.7072 104.987 53.1442 104.536 49.6735 103.657V111.429H70.898V103.657C67.4272 104.536 63.8642 104.987 60.2857 105Z" fill="white"/>
<path d="M111.225 70.7142V49.2856H103.526C105.301 56.3158 105.301 63.684 103.526 70.7142H111.225Z" fill="white"/>
<path d="M83.6327 59.9999C83.6327 73.0182 73.1801 83.5713 60.2858 83.5713C47.3915 83.5713 36.9388 73.0182 36.9388 59.9999C36.9388 46.9816 47.3915 36.4285 60.2858 36.4285C73.1801 36.4285 83.6327 46.9816 83.6327 59.9999Z" fill="white"/>
<path d="M117.592 75C118.764 75 119.714 74.0405 119.714 72.8571V47.1429C119.714 45.9595 118.764 45 117.592 45C116.42 45 115.469 45.9595 115.469 47.1429V72.8571C115.469 74.0405 116.42 75 117.592 75Z" fill="white"/>
<path d="M2.97963 75C4.15174 75 5.10208 74.0405 5.10208 72.8571V47.1429C5.10208 45.9595 4.15174 45 2.97963 45C1.80751 45 0.857178 45.9595 0.857178 47.1429V72.8571C0.857178 74.0405 1.80751 75 2.97963 75Z" fill="white"/>
<path d="M60.2857 15.0001C63.8642 15.0137 67.4272 15.4647 70.898 16.3436V8.57153H49.6735V16.3436C53.1442 15.4647 56.7072 15.0137 60.2857 15.0001Z" fill="white"/>
<path d="M9.34698 49.2856V70.7142H17.045C15.2708 63.684 15.2708 56.3158 17.045 49.2856H9.34698Z" fill="white"/>
<path d="M73.0204 0H47.551C46.3789 0 45.4286 0.959473 45.4286 2.14286C45.4286 3.32624 46.3789 4.28571 47.551 4.28571H73.0204C74.1925 4.28571 75.1429 3.32624 75.1429 2.14286C75.1429 0.959473 74.1925 0 73.0204 0Z" fill="white"/>
<path d="M60.2858 19.2856C38.0135 19.2856 19.9592 37.5135 19.9592 59.9999C19.9592 82.4863 38.0135 100.714 60.2858 100.714C82.558 100.714 100.612 82.4863 100.612 59.9999C100.587 37.524 82.5476 19.3108 60.2858 19.2856ZM60.2858 87.8571C45.0472 87.8571 32.6939 75.385 32.6939 59.9999C32.6939 44.6149 45.0472 32.1428 60.2858 32.1428C75.5243 32.1428 87.8776 44.6149 87.8776 59.9999C87.86 75.3777 75.517 87.8393 60.2858 87.8571Z" fill="white"/>
</g>
<defs>
<clipPath id="clip0">
<rect width="118.857" height="120" fill="white" transform="translate(0.857178)"/>
</clipPath>
</defs>
</svg>
