<svg width="107" height="154" viewBox="0 0 107 154" fill="none" xmlns="http://www.w3.org/2000/svg">
<path d="M-22.0919 112.412C-13.1422 148.019 19.0737 174.384 57.4564 174.384C71.7008 174.384 85.0931 170.75 96.7651 164.365C96.7376 150.712 96.6504 136.928 93.5092 123.645C90.3234 110.171 83.66 97.0606 72.6212 88.7033C56.3512 76.3859 33.0641 76.5944 14.3837 84.8076C0.305074 90.9981 -11.5735 101.061 -22.0919 112.412" fill="#FEC163"/>
<path d="M22.3931 82.3006C22.3931 82.3006 25.5277 93.5621 27.412 98.018C29.5153 102.99 31.7807 108.038 35.5314 111.923C39.2811 115.807 44.8508 118.364 50.1095 117.142C52.9948 116.472 55.5114 114.761 57.9521 113.084C64.8942 108.315 75.2496 105.305 81.6173 97.6692C81.8932 98.3583 82.9027 100.042 83.6856 98.6673C87.1832 92.5318 65.7625 80.185 59.88 78.1196C54.936 76.384 49.9417 74.6362 44.737 74.0305C38.8622 73.3461 19.3827 75.5234 16.6121 82.857C15.8083 84.983 22.3931 82.3006 22.3931 82.3006Z" fill="#FB9300"/>
<path d="M55.1067 79.9954C52.0517 79.7499 48.7854 79.3641 45.7636 80.0731C45.7124 80.1707 45.6243 80.2504 45.4859 80.2883C39.9608 81.7868 38.6783 89.6882 41.2518 94.1555C44.0186 98.9573 50.9058 101.425 56.173 100.272C62.5825 98.8692 65.7313 91.347 63.7303 85.3574C62.4346 81.4807 58.8185 80.2949 55.1067 79.9954" fill="white"/>
<path d="M44.6839 67.7907C43.1512 74.5717 40.4877 84.4607 41.3304 87.9062C42.2735 91.7602 46.9218 93.8635 50.8365 94.509C68.3151 97.3877 63.7302 85.3574 67.1549 69.3604L44.6839 67.7907" fill="#F57F83"/>
<path d="M66.0383 76.3859C66.0383 76.3783 66.0393 76.3726 66.0402 76.366C66.0393 76.3726 66.0383 76.3792 66.0383 76.3859ZM66.0412 76.3537C66.298 74.1404 66.6336 71.7963 67.1549 69.3603C66.6336 71.7973 66.298 74.1413 66.0412 76.3537ZM44.6461 67.9584C44.6498 67.9423 44.6537 67.9253 44.6574 67.9092C44.6537 67.9253 44.6498 67.9414 44.6461 67.9584ZM44.6593 67.8997C44.665 67.8741 44.6707 67.8485 44.6764 67.8229C44.6707 67.8485 44.665 67.8741 44.6593 67.8997ZM44.6783 67.8153C44.6802 67.8077 44.6821 67.7992 44.684 67.7907C44.6821 67.7992 44.6802 67.8077 44.6783 67.8153Z" fill="#FAB79F"/>
<path d="M58.5683 81.1129C56.9001 81.1129 55.2185 80.9385 53.5351 80.5575C50.2565 79.8153 45.8243 78.3167 42.7968 75.9177C43.4139 73.167 44.0973 70.3736 44.6461 67.9585C44.6499 67.9414 44.6537 67.9253 44.6575 67.9092C44.6575 67.9054 44.6584 67.9026 44.6594 67.8997C44.6651 67.8741 44.6707 67.8486 44.6764 67.823C44.6774 67.8201 44.6774 67.8182 44.6783 67.8154C44.6802 67.8078 44.6821 67.7993 44.684 67.7907L67.1549 69.3604C66.6336 71.7964 66.2981 74.1405 66.0412 76.3537C66.0412 76.3584 66.0403 76.3622 66.0403 76.366C66.0393 76.3727 66.0384 76.3783 66.0384 76.3859C65.8886 77.6816 65.7654 78.9328 65.6488 80.1319C63.3294 80.7546 60.9616 81.1129 58.5683 81.1129" fill="#F46F74"/>
<path d="M12.1923 109.42C4.48146 116.269 -5.56586 129.462 -10.6938 138.38L-9.872 138.852C-4.81421 130.041 5.23974 116.852 12.8207 110.129L12.1923 109.42Z" fill="#FB9300"/>
<path d="M70.4696 127.564C70.8469 132.326 71.0346 137.104 71.0346 141.881C71.0346 152.467 70.1123 163.053 68.2753 173.477L69.209 173.642C71.0554 163.163 71.9824 152.522 71.9824 141.881C71.9824 137.078 71.7938 132.277 71.4147 127.489L70.4706 127.564" fill="#FB9300"/>
<path d="M85.8666 59.659C85.3775 52.8808 86.0666 46.0193 87.8931 39.4734C89.9557 32.08 97.768 31.9682 96.3045 40.4136C95.0457 47.6837 91.2306 54.6154 85.8666 59.659" fill="black"/>
<path d="M93.1509 30.9625C91.6059 39.5558 91.0192 48.2486 88.0059 56.4429C85.151 64.2059 74.0601 80.4247 58.9161 78.3129C54.4981 77.6968 39.6157 73.4295 38.2499 53.9491C37.7248 46.4686 38.6537 38.9956 40.1608 31.6497C41.4158 25.5379 48.5797 16.5645 61.3673 19.2318C74.1558 21.9 93.1509 30.9625 93.1509 30.9625" fill="#F57F83"/>
<path d="M98.4884 15.5654C99.222 14.1067 99.2694 12.32 98.6126 10.8242C97.5785 8.46785 95.1045 7.14182 92.8031 5.98922C87.4875 3.32952 81.3492 0.615756 75.8203 2.79963C71.6109 -0.0904003 65.9872 -0.804123 61.1901 0.944681C56.392 2.69254 52.5456 6.85552 51.1816 11.7768C48.8973 13.4128 48.5949 17.1796 50.5873 19.1597L48.4489 21.0914C47.1608 26.9123 49.3873 30.9786 62.3531 33.4971C66.4952 34.3009 70.627 32.4819 71.1199 31.3321C71.263 31.6326 71.445 31.9189 71.6933 32.1293C81.0857 40.0857 93.2145 37.2222 96.4515 35.8667C99.1557 34.734 101.122 31.5245 100.474 28.8582C101.181 29.5539 102.312 29.8999 103.301 29.6488C104.855 29.2535 105.955 27.8147 106.474 26.2971C108.171 21.337 103.727 15.3645 98.4884 15.5654" fill="black"/>
<path d="M57.1891 59.3273C59.6545 61.0306 62.5872 62.0486 65.5786 62.2391C65.2469 63.6116 64.7511 64.9699 63.8914 66.0893C63.0317 67.2087 61.7701 68.3727 60.3673 68.2201C54.0356 67.5338 57.1891 59.3273 57.1891 59.3273Z" fill="white"/>
<path d="M88.0059 56.443C88.0818 56.2354 88.15 56.0259 88.223 55.8183C86.6202 53.7321 84.1074 52.3814 81.2724 52.3814C76.4278 52.3814 72.5009 56.3084 72.5009 61.1529C72.5009 65.3614 75.4667 68.8751 79.4212 69.7253C83.7169 65.223 86.7112 59.9643 88.0059 56.443" fill="#F36273"/>
<path d="M50.7645 43.9899C45.92 43.9899 41.993 47.9169 41.993 52.7614C41.993 57.6059 45.92 61.5329 50.7645 61.5329C55.6081 61.5329 59.536 57.6059 59.536 52.7614C59.536 47.9169 55.6081 43.9899 50.7645 43.9899Z" fill="#F36273"/>
<path d="M40.7684 10.3808C38.3741 12.0424 37.3684 15.4443 38.4736 18.1419C36.2063 18.6717 34.467 20.63 33.6907 22.8243C32.9144 25.0186 32.9713 27.4224 33.2803 29.7285C34.2063 36.6612 36.2651 49.1909 42.2072 48.3369C44.3674 48.026 42.7532 43.5967 43.4413 41.3341C44.1304 39.0725 44.3209 37.0166 45.628 35.0507C48.2422 31.119 51.482 27.4726 52.9256 22.9769C55.0858 16.2528 48.8053 4.80166 40.7684 10.3808" fill="black"/>
<path d="M80.6364 61.6059C75.3084 61.6059 70.9739 57.2713 70.9739 51.9434C70.9739 46.6155 75.3084 42.2809 80.6364 42.2809C85.4505 42.2809 89.442 45.8231 90.169 50.4354C90.2173 50.8808 90.3491 51.3595 90.2894 52.1216C90.1936 57.3661 85.9036 61.6059 80.6364 61.6059V61.6059ZM56.8469 56.1017C51.52 56.1017 47.1845 51.7671 47.1845 46.4392C47.1845 41.1122 51.52 36.7767 56.8469 36.7767C62.1749 36.7767 66.5095 41.1122 66.5095 46.4392C66.5095 51.7671 62.1749 56.1017 56.8469 56.1017ZM80.6364 40.7302C76.3198 40.7302 72.571 43.1852 70.6971 46.7691C69.9824 46.3084 68.9777 46.2619 68.0592 46.405C68.0402 40.2383 63.0194 35.226 56.8469 35.226C52.6868 35.226 49.0555 37.5084 47.12 40.8819L47.0755 40.8373C45.3617 39.6952 43.557 38.8032 41.7134 37.8895C40.0982 37.0876 38.4812 36.0952 36.7428 35.6004C36.4082 35.5056 36.085 35.9786 36.3826 36.2193C37.8793 37.426 39.7295 38.2383 41.4044 39.1757C43.1276 40.1416 44.8101 41.0762 46.63 41.8449C45.9958 43.2487 45.6338 44.8013 45.6338 46.4392C45.6338 52.623 50.664 57.6533 56.8469 57.6533C62.6933 57.6533 67.5019 53.1548 68.0099 47.4401C68.2706 47.4856 68.5293 47.533 68.7824 47.5861C69.0251 47.6373 69.3009 47.6932 69.5331 47.7842C69.8146 47.8951 69.8763 48.0079 70.0857 48.1814C69.6639 49.3596 69.4222 50.6221 69.4222 51.9434C69.4222 58.1263 74.4525 63.1566 80.6364 63.1566C86.8193 63.1566 91.8505 58.1263 91.8505 51.9434C91.8505 45.7596 86.8193 40.7302 80.6364 40.7302" fill="#872D1B"/>
<path d="M39.2243 53.3463C38.7551 55.1643 37.9343 55.3833 36.0774 55.1037C34.2205 54.8241 32.6765 53.3938 31.886 51.6905C31.0945 49.9881 30.9665 48.0469 31.1011 46.1749C31.2348 44.3208 31.6623 42.3862 32.9163 41.0156C34.231 39.5768 36.0442 38.1483 38.2603 39.5512C40.4774 40.954 39.2243 53.3463 39.2243 53.3463" fill="#F57F83"/>
<path d="M60.6782 31.4506C58.5749 31.1426 56.4583 32.5644 55.0688 33.9767C54.9171 34.1302 55.1076 34.3596 55.2925 34.2667C56.4384 33.6923 57.7882 33.1492 59.0602 32.8923C61.154 32.4696 61.8687 33.8449 62.5228 35.5577C62.8071 36.3008 64.1692 36.2914 64.0497 35.3501C63.8194 33.5369 62.6062 31.7322 60.6782 31.4506" fill="#622128"/>
<path d="M87.6411 37.6422C85.8013 37.0355 83.3596 38.3104 81.8724 39.2961C81.5169 39.5322 81.8923 40.0943 82.2638 39.918C83.4354 39.3616 84.8354 38.862 86.1576 38.9246C88.3301 39.027 87.6202 41.2346 87.7756 42.6914C87.8647 43.5388 88.9652 43.4392 89.2704 42.8212C90.132 41.081 89.7444 38.3369 87.6411 37.6422Z" fill="#622128"/>
<path d="M57.9617 42.3379C57.8839 41.6564 57.9275 40.899 57.3474 40.4592C57.1825 40.3341 56.9494 40.4128 56.81 40.5294C56.3162 40.9388 56.3721 41.7834 56.2792 42.3777C56.1645 43.1189 56.1313 43.8355 56.3285 44.5587C56.4783 45.1075 57.3456 45.2886 57.6138 44.7274C57.9797 43.9625 58.0583 43.1824 57.9617 42.3379Z" fill="#622128"/>
<path d="M83.9766 45.6695C83.8193 45.0913 82.9861 45.2316 82.9586 45.8069C82.9178 46.6363 82.6572 47.461 82.4164 48.2515C82.1179 49.2335 83.5491 49.5653 83.916 48.6648C84.3188 47.6771 84.2543 46.6875 83.9766 45.6695" fill="#622128"/>
<path d="M67.0024 53.5586C66.9464 53.2714 66.4924 53.2799 66.4308 53.5586C66.0156 55.4581 65.4479 57.2657 64.8905 59.1216C64.7142 59.7131 65.5152 59.9822 65.8384 59.5206C67.0374 57.8041 67.3967 55.6012 67.0024 53.5586Z" fill="#F36273"/>
</svg>
