<svg width="26" height="36" viewBox="0 0 26 36" fill="none" xmlns="http://www.w3.org/2000/svg">
<path d="M15.9219 0.0253906C15.9219 0.0253906 15.8828 0.40625 15.7656 0.962891C15.6875 1.22656 15.6094 1.54883 15.4922 1.90039C15.375 2.25195 15.1797 2.60352 15.0625 2.95508C14.4766 4.39063 13.8516 5.82617 13.8516 5.82617H13.8125C13.8125 5.82617 14.2422 4.36133 14.7109 2.89648C14.8281 2.54492 14.9453 2.16406 15.0234 1.8125C15.1406 1.46094 15.2969 1.16797 15.4141 0.904297C15.6875 0.376953 15.9219 0.0253906 15.9219 0.0253906V0.0253906Z" fill="#736357"/>
<path d="M15.7656 0.523438L9.90625 1.16797L11.3125 1.8418L13.7734 2.66211L16.0391 3.16016L18.2266 3.42383L20.0234 3.24805L15.7656 0.523438Z" fill="url(#paint0_linear)"/>
<path d="M9.47656 1.16797L15.6875 0.523438" stroke="#FF3F7B" stroke-width="0.61" stroke-miterlimit="10"/>
<path d="M11.0391 2.10547L15.7266 0.523438" stroke="#FF3F7B" stroke-width="0.61" stroke-miterlimit="10"/>
<path d="M13.5 3.01367L15.7266 0.523438" stroke="#FF3F7B" stroke-width="0.61" stroke-miterlimit="10"/>
<path d="M16.1172 3.48242L15.7656 0.582031" stroke="#FF3F7B" stroke-width="0.61" stroke-miterlimit="10"/>
<path d="M18.5781 3.6582L15.7656 0.523438" stroke="#FF3F7B" stroke-width="0.61" stroke-miterlimit="10"/>
<path d="M20.2188 3.54102L15.7656 0.464844" stroke="#FF3F7B" stroke-width="0.61" stroke-miterlimit="10"/>
<path opacity="0.2" d="M15.7266 0.728516L18.9687 2.92578L19.125 3.01367L18.4219 3.10156C18.3828 3.10156 18.3437 3.13086 18.3047 3.13086H18.2656L16.2734 2.89648H16.1562C16.1172 2.89648 16.1172 2.86719 16.0781 2.86719L15.1797 2.66211H14.9844C14.9453 2.63281 14.8672 2.60352 14.8281 2.57422L14.125 2.45703C14.0859 2.45703 14.0469 2.48633 14.0078 2.48633C13.9687 2.48633 13.9687 2.39844 13.9297 2.39844L11.8984 1.69531C11.7813 1.69531 11.7422 1.63672 11.6641 1.63672C11.625 1.63672 11.5859 1.60742 11.5469 1.57813H11.5078L10.8047 1.22656L15.7266 0.728516V0.728516ZM15.8828 0.0253906C15.8828 0.0253906 15.7656 0.171875 15.6094 0.435547L9.4375 1.08008L9.47656 1.25586L9.98438 1.19727L11.3125 1.8418L11.3906 1.87109L10.9609 2.01758L11.0391 2.19336L11.6641 1.98828L13.6953 2.66211L13.3828 2.98438L13.5781 3.07227L13.8906 2.69141L14.5937 2.86719V2.89648C14.125 4.36133 13.6953 5.82617 13.6953 5.82617H13.7344C13.7344 5.82617 14.3594 4.39063 14.9453 2.95508V2.92578L15.8437 3.13086L15.8828 3.48242L16.1172 3.45312L16.0781 3.16016L18.0703 3.39453L18.3437 3.6875L18.5391 3.59961L18.4609 3.39453L19.6328 3.27734L20.1016 3.59961L20.2578 3.48242L19.9062 3.24805H19.9453L19.2031 2.7207L15.8828 0.435547C15.9219 0.171875 15.9609 0.0253906 15.9609 0.0253906H15.8828V0.0253906Z" fill="#424242"/>
<path d="M9.67182 2.25199L1.74213 9.54691C1.74213 9.54691 -1.30474 6.44144 2.17182 3.57035C5.64838 0.699255 9.67182 2.25199 9.67182 2.25199V2.25199Z" fill="#057A64"/>
<path d="M9.59376 2.33987L1.85938 9.45901C1.85938 9.45901 -0.87499 6.7051 2.60157 3.80471C6.07813 0.904325 9.59376 2.33987 9.59376 2.33987V2.33987Z" fill="url(#paint1_linear)"/>
<path d="M7.40625 3.0723C7.75781 2.75004 8.38281 2.69144 8.8125 2.95511L6.82031 4.83011C6.82031 4.83011 7.09375 3.39457 7.40625 3.0723V3.0723Z" fill="#F1F41C"/>
<path d="M2.32807 7.84766C2.67963 7.52539 4.4765 7.05664 4.4765 7.05664L2.44525 8.90234C2.01557 8.63867 1.93744 8.16992 2.32807 7.84766V7.84766Z" fill="#F1F41C"/>
<path d="M2.75802 4.918C2.32834 4.65433 2.25021 4.18558 2.60177 3.86332C2.95334 3.54105 3.57834 3.48246 4.00802 3.74613C4.43771 4.0098 5.10178 5.35746 5.10178 5.35746C5.10178 5.35746 3.18771 5.18168 2.75802 4.918Z" fill="#F1F41C"/>
<path d="M2.56269 5.44528C2.01581 5.50387 1.62519 5.85544 1.70331 6.26559C1.78144 6.67575 2.25019 6.96872 2.79706 6.91012C3.34394 6.85153 4.86737 5.97262 4.86737 5.97262C4.86737 5.97262 3.10956 5.38669 2.56269 5.44528V5.44528Z" fill="#F1F41C"/>
<path d="M4.633 3.51179C4.55488 3.10163 4.9455 2.72077 5.49238 2.69147C6.03925 2.66218 6.54707 2.95515 6.58613 3.336C6.62519 3.71686 5.84394 5.03522 5.84394 5.03522C5.84394 5.03522 4.67206 3.92194 4.633 3.51179V3.51179Z" fill="#F1F41C"/>
<path d="M2.56269 5.44528C2.01581 5.50387 1.62519 5.85544 1.70331 6.26559C1.78144 6.67575 2.25019 6.96872 2.79706 6.91012C3.34394 6.85153 4.86737 5.97262 4.86737 5.97262C4.86737 5.97262 3.10956 5.38669 2.56269 5.44528V5.44528Z" fill="#F1F41C"/>
<path opacity="0.2" d="M7.0548 2.39844C7.56262 2.39844 8.03137 2.45703 8.38293 2.51562L3.85168 6.70508C3.81262 6.73437 3.81262 6.76367 3.77355 6.76367L3.03137 7.4375L1.85949 8.52148C1.27355 7.55469 0.609492 5.70898 2.75793 3.95117C4.00793 2.92578 5.45324 2.39844 7.0548 2.39844V2.39844ZM7.0548 1.8125C5.64855 1.8125 3.85168 2.16406 2.21105 3.54102C-1.30457 6.41211 1.78137 9.51758 1.78137 9.51758L1.89855 9.42969L3.65637 7.78906L4.47668 7.02734L9.59387 2.31055L9.71105 2.22266C9.67199 2.25195 8.57824 1.8125 7.0548 1.8125V1.8125Z" fill="#424242"/>
<path d="M18.3828 33.9805C18.3828 34.7129 14.9453 35.2988 10.7266 35.2988C6.50781 35.2988 3.07031 34.7129 3.07031 33.9805C3.07031 33.248 6.50781 32.1934 10.7266 32.1934C14.9453 32.1934 18.3828 33.2187 18.3828 33.9805Z" fill="url(#paint2_linear)"/>
<path d="M17.7969 14.4688C16.3516 10.5137 16.9375 5.38672 16.9375 5.38672C16.9375 5.38672 14.1641 5.94336 10.6875 5.94336C7.28909 5.94336 4.51565 5.73828 4.39846 5.38672C4.43752 5.70898 4.9844 10.7773 3.57815 14.5859C2.13283 18.541 0.453148 21.2949 5.2969 24.5176C10.1406 27.7402 9.78909 27.2715 9.75002 28.7949C9.71096 30.3184 9.39846 32.1055 9.20315 32.6328C9.00784 33.1602 10.0625 33.3066 10.6875 33.3066C11.3125 33.3066 12.3672 33.1602 12.1719 32.6328C11.9766 32.1055 11.6641 30.3184 11.625 28.7949C11.586 27.2715 11.2344 27.6816 16.0782 24.459C20.9219 21.2363 19.2422 18.4238 17.7969 14.4688V14.4688Z" fill="url(#paint3_linear)"/>
<path opacity="0.8" d="M10.6875 4.80078C7.21094 4.80078 4.39844 5.09375 4.39844 5.44531V5.47461C4.47656 5.82617 7.25 6.11914 10.6875 6.11914C14.1641 6.11914 16.9766 5.82617 16.9766 5.47461C16.9766 5.09375 14.1641 4.80078 10.6875 4.80078V4.80078Z" fill="#D0D6D2"/>
<path opacity="0.2" d="M10.6875 5.38672C13.5391 5.38672 15.4141 5.5918 16.1172 5.73828C16 7.02734 15.7656 11.2461 17.0156 14.6445C17.1328 14.9961 17.2891 15.3477 17.4063 15.6992C18.6953 19.0977 19.5547 21.3535 15.5313 24.0488C15.0235 24.4004 14.5547 24.6934 14.1641 24.957C10.9219 27.0957 10.7266 27.2129 10.8047 28.5605V28.8242C10.8438 30.1133 11.0781 31.5488 11.2735 32.3398C11.3516 32.6035 11.625 32.8086 11.9766 32.8086C15.0235 32.9551 16.9375 33.5996 17.4453 33.9219C16.7813 34.2148 14.4766 34.6836 10.6875 34.6836C6.89846 34.6836 4.55471 34.2148 3.92971 33.9219C4.47659 33.5996 6.35159 32.9551 9.3594 32.8086C9.71096 32.7793 10.0235 32.6035 10.0625 32.3105C10.2578 31.5488 10.4531 30.1133 10.4922 28.7949V28.5312C10.5703 27.2422 10.336 27.0664 7.4844 25.2207C7.01565 24.8984 6.42971 24.5176 5.76565 24.0781C1.74221 21.4121 2.60159 19.1855 3.89065 15.8164C4.00784 15.4648 4.16409 15.1133 4.28127 14.7324C5.53127 11.334 5.2969 7.08594 5.17971 5.70898C5.9219 5.5918 7.83596 5.38672 10.6875 5.38672V5.38672ZM10.6875 4.80078C7.32815 4.80078 4.63284 5.06445 4.43752 5.41602V5.38672V5.47461C4.51565 6.20703 4.94533 10.9531 3.61721 14.5859C2.1719 18.541 0.492211 21.2949 5.33596 24.5176C10.1797 27.7402 9.82815 27.2715 9.78909 28.7949C9.75002 30.0254 9.55471 31.4609 9.3594 32.2227C5.80471 32.4277 3.07034 33.3066 3.07034 33.9512C3.07034 34.6836 6.50783 35.2695 10.7266 35.2695C14.9453 35.2695 18.3828 34.6836 18.3828 33.9512C18.3828 33.3066 15.6485 32.3984 12.0547 32.2227C11.8594 31.4609 11.6641 30.0547 11.625 28.7949C11.586 27.3008 11.2344 27.7109 16.0781 24.4883C20.9219 21.2656 19.2422 18.4531 17.7969 14.498C16.4688 10.8652 16.8594 6.26563 16.9375 5.50391C16.9766 5.47461 16.9766 5.44531 16.9766 5.44531C16.9766 5.09375 14.1641 4.80078 10.6875 4.80078V4.80078Z" fill="#424242"/>
<path d="M16.0781 7.14453C15.8828 6.85156 13.5391 6.61719 10.6875 6.61719C7.83594 6.61719 5.53125 6.88086 5.33594 7.14453V7.17383C5.33594 7.4668 7.75781 7.73047 10.7266 7.73047C13.6953 7.73047 16.0781 7.49609 16.0781 7.20313V7.14453Z" fill="#FFFA99"/>
<path d="M13.9688 4.71289C13.4609 5.15234 13.2656 5.5625 13.2656 5.5625L12.9922 6.06055C13.5391 6.03125 14.0469 6.00195 14.5156 5.97266C14.6328 5.76758 14.7891 5.62109 14.9453 5.47461C14.5547 5.29883 14.125 5.06445 13.9688 4.71289V4.71289Z" fill="#FF6815"/>
<path d="M14.8672 4.18555C14.7109 4.24414 14.5547 4.33203 14.3984 4.41992C14.6328 4.74219 14.8281 5.09375 15.2578 5.26953C15.375 5.21094 15.4922 5.15234 15.5703 5.09375C15.2188 4.85937 14.9844 4.50781 14.8672 4.18555V4.18555Z" fill="#FF6815"/>
<path d="M14.8672 4.18555C14.9844 4.53711 15.2188 4.85937 15.6094 5.09375C15.7266 5.03516 15.8828 4.97656 15.9609 4.94727C15.6484 4.71289 15.4531 4.33203 15.4141 3.98047C15.2188 4.03906 15.0234 4.09766 14.8672 4.18555Z" fill="#C75110"/>
<path d="M15.8047 3.86328C15.8828 4.24414 16.0391 4.53711 16.3516 4.80078C16.4297 4.77148 16.4688 4.77148 16.5078 4.77148H16.625C16.3516 4.50781 16.3125 4.15625 16.1953 3.80469C16.0781 3.80469 15.9219 3.83398 15.8047 3.86328V3.86328Z" fill="#C75110"/>
<path d="M25.4141 3.74616C25.4141 3.74616 25.4922 2.95514 24.9844 2.98444C23.6953 3.10162 18.8125 3.45319 16.5078 3.74616C16.4297 3.74616 16.3125 3.77545 16.2344 3.77545C16.3516 4.12701 16.3906 4.47858 16.6641 4.74225L25.1406 4.00983C25.2969 4.00983 25.4141 3.89264 25.4141 3.74616V3.74616Z" fill="url(#paint4_linear)"/>
<path d="M15.4141 3.98047C15.4922 4.33203 15.6484 4.68359 15.9609 4.94727C16.1172 4.88867 16.2734 4.85937 16.3516 4.83008C16.0391 4.56641 15.8438 4.27344 15.8047 3.89258C15.6484 3.89258 15.5313 3.92187 15.4141 3.98047V3.98047Z" fill="#FF6815"/>
<path d="M14.3984 4.39062C14.2422 4.50781 14.0859 4.5957 13.9297 4.71289C14.125 5.03516 14.5156 5.29883 14.9453 5.44531C15.0234 5.35742 15.1406 5.29883 15.2578 5.24023C14.8281 5.09375 14.6328 4.71289 14.3984 4.39062V4.39062Z" fill="#C75110"/>
<path d="M12.9922 6.06055L12.6797 6.67578L12.4844 7.05664C12.4063 7.20312 12.5235 7.34961 12.7188 7.37891C13.0313 7.4375 13.4219 7.4375 13.7344 7.34961C13.8126 7.32031 13.8907 7.26172 13.9297 7.20312C14.0079 7.02734 14.086 6.88086 14.1641 6.76367C14.3204 6.41211 14.3985 6.20703 14.5157 6.00195V5.97266C14.086 6.00195 13.5782 6.03125 12.9922 6.06055V6.06055Z" fill="#FF9961"/>
<path opacity="0.2" d="M24.9453 3.30664C24.9844 3.39453 25.0234 3.57031 25.0234 3.74609L16.625 4.47852H16.5469C16.5078 4.47852 16.4688 4.47852 16.4297 4.50781C16.3906 4.50781 16.3516 4.53711 16.2344 4.56641C16.0781 4.5957 15.9609 4.6543 15.8047 4.71289C15.6484 4.77149 15.5313 4.83008 15.4141 4.88867C15.2578 4.94727 15.1406 5.00586 15.0625 5.06445C14.9453 5.15234 14.8281 5.21094 14.7109 5.29883C14.5547 5.44531 14.3984 5.5918 14.2813 5.73828C14.0469 5.76758 13.8516 5.76758 13.6172 5.79688L13.6563 5.70899V5.67969C13.6563 5.67969 13.8125 5.32813 14.2422 4.94727L14.6328 4.6543C14.75 4.5957 14.9063 4.50781 15.0625 4.44922C15.2188 4.39063 15.375 4.33203 15.5703 4.27344L15.9219 4.18555C16.0391 4.15625 16.1563 4.12695 16.3125 4.09766C16.3906 4.09766 16.4688 4.06836 16.5859 4.06836C18.7734 3.80469 23.3438 3.45313 24.8281 3.33594L24.9453 3.30664V3.30664ZM25.0234 3.01367C23.6953 3.10156 18.8125 3.45313 16.5078 3.74609C16.4297 3.74609 16.3125 3.77539 16.2344 3.77539C16.0781 3.80469 15.9609 3.83398 15.8047 3.86328C15.6875 3.89258 15.5313 3.92188 15.4141 3.98047C15.2188 4.03906 15.0234 4.09766 14.8672 4.18555C14.7109 4.24414 14.5547 4.33203 14.3984 4.41992C14.2422 4.53711 14.0859 4.625 13.9297 4.74219C13.4219 5.18164 13.2266 5.5918 13.2266 5.5918L12.9531 6.08985C13.5 6.06055 14.0078 6.03125 14.4766 6.00195C14.5938 5.79688 14.75 5.65039 14.9063 5.50391C14.9844 5.41602 15.1016 5.35742 15.2188 5.29883C15.3359 5.24024 15.4531 5.18164 15.5313 5.12305C15.6484 5.06445 15.8047 5.00586 15.8828 4.97656C16.0391 4.91797 16.1953 4.88867 16.2734 4.85938C16.3516 4.83008 16.3906 4.83008 16.4297 4.83008H16.5469L25.0234 4.09766C25.1797 4.09766 25.3359 3.95117 25.2969 3.83398C25.4141 3.74609 25.4531 3.01367 25.0234 3.01367V3.01367Z" fill="#424242"/>
<path d="M13.7342 7.58398C13.2655 7.61328 12.7577 7.64258 12.1717 7.64258C11.703 7.64258 11.2342 7.67188 10.7264 7.67188C7.64048 7.67188 5.60923 7.4668 5.33579 7.20312C5.33579 7.20312 5.5311 11.6562 4.2811 15.0254C3.3436 17.5156 1.82016 20.2402 4.04673 22.6719C5.5311 24.2832 8.42173 25.4551 11.078 25.3672C12.4061 25.3086 13.7342 24.8398 14.867 24.3418C15.9608 23.873 16.8592 23.2285 17.5233 22.4082C19.4374 20.0937 18.1092 17.4277 17.1327 15.0254C15.7264 11.5098 16.0389 7.29102 15.9999 7.32031C15.6483 7.4375 15.2577 7.49609 13.7342 7.58398V7.58398Z" fill="url(#paint5_linear)"/>
<path d="M6.19507 5.91406C6.19507 5.91406 7.44507 10.5723 6.27319 13.1797C5.10132 15.7871 2.91382 20.1816 4.55445 22.1445C6.19507 24.1074 7.95288 24.3125 7.95288 24.3125C7.95288 24.3125 6.31226 21.9395 7.09351 18.0137C7.87476 14.1172 8.65601 8.375 7.95288 6.03125L6.19507 5.91406Z" fill="url(#paint6_linear)"/>
<defs>
<linearGradient id="paint0_linear" x1="15.6734" y1="0.51084" x2="15.0897" y2="2.99709" gradientUnits="userSpaceOnUse">
<stop stop-color="#FF3776"/>
<stop offset="1" stop-color="#FFDEE7"/>
</linearGradient>
<linearGradient id="paint1_linear" x1="2.58946" y1="3.63889" x2="4.9053" y2="6.6057" gradientUnits="userSpaceOnUse">
<stop stop-color="#93D919"/>
<stop offset="1" stop-color="#F2F45D"/>
</linearGradient>
<linearGradient id="paint2_linear" x1="10.7266" y1="32.1934" x2="10.7266" y2="35.3574" gradientUnits="userSpaceOnUse">
<stop stop-color="white"/>
<stop offset="0.132" stop-color="#F3F3F3"/>
<stop offset="0.454" stop-color="#DBDBDB"/>
<stop offset="0.752" stop-color="#CCCCCC"/>
<stop offset="1" stop-color="#C7C7C7"/>
</linearGradient>
<linearGradient id="paint3_linear" x1="10.6875" y1="5.49658" x2="10.6875" y2="33.377" gradientUnits="userSpaceOnUse">
<stop stop-color="#F6F9FE"/>
<stop offset="0.995" stop-color="#C5CFD0"/>
</linearGradient>
<linearGradient id="paint4_linear" x1="16.9848" y1="4.18121" x2="25.14" y2="2.96529" gradientUnits="userSpaceOnUse">
<stop stop-color="#FF6815"/>
<stop offset="0.995" stop-color="#FF9147"/>
</linearGradient>
<linearGradient id="paint5_linear" x1="10.6967" y1="7.7917" x2="10.6967" y2="25.3118" gradientUnits="userSpaceOnUse">
<stop stop-color="#FFE12E"/>
<stop offset="0.545" stop-color="#FF7300"/>
<stop offset="0.997" stop-color="#FF0000"/>
</linearGradient>
<linearGradient id="paint6_linear" x1="6.09624" y1="5.91406" x2="6.09624" y2="24.3125" gradientUnits="userSpaceOnUse">
<stop stop-color="#F6F9FE"/>
<stop offset="0.995" stop-color="white" stop-opacity="0"/>
</linearGradient>
</defs>
</svg>
