<svg width="32" height="31" viewBox="0 0 32 31" fill="none" xmlns="http://www.w3.org/2000/svg">
<g clip-path="url(#clip0)">
<path d="M23.809 21.0364C23.809 23.5759 18.48 25.637 11.905 25.637C5.331 25.637 0 23.5759 0 21.0364C0 18.4934 5.331 16.4338 11.905 16.4338C18.48 16.4338 23.809 18.4934 23.809 21.0364" fill="#A6A8AB"/>
<path d="M19.9111 26.3325C26.4855 26.3325 31.8151 24.2728 31.8151 21.7319C31.8151 19.1911 26.4855 17.1313 19.9111 17.1313C13.3367 17.1313 8.00708 19.1911 8.00708 21.7319C8.00708 24.2728 13.3367 26.3325 19.9111 26.3325Z" fill="#A6A8AB"/>
<path d="M16.3384 24.7564C11.3034 24.7564 6.78844 23.6927 3.72844 22.01C3.69794 22.2372 3.67944 22.4668 3.67944 22.6998C3.67944 27.093 9.25894 30.6546 16.1409 30.6546C23.0239 30.6546 28.6034 27.0926 28.6034 22.6998C28.6034 22.5322 28.5934 22.3675 28.5759 22.2033C25.5304 23.7731 21.1739 24.7564 16.3374 24.7564" fill="#D0D2D3"/>
<path d="M9.93342 24.1485C7.53092 23.6709 5.40842 22.9357 3.72942 22.0115C3.69892 22.2386 3.68042 22.4682 3.68042 22.7012C3.68042 27.0945 9.25992 30.6561 16.1419 30.6561C16.6844 30.6561 17.2174 30.6309 17.7429 30.5883C13.5639 29.5382 10.4899 27.0931 9.93342 24.1485" fill="#B6B6B7"/>
<path d="M30.06 18.8607C30.06 21.8304 23.828 24.2372 16.145 24.2372C8.4595 24.2372 2.229 21.827 2.229 18.8607C2.229 15.89 8.4595 13.4792 16.145 13.4792C23.828 13.4792 30.06 15.888 30.06 18.8607Z" fill="#D0D2D3"/>
<path d="M16.0449 23.2544C22.6196 23.2544 27.9494 21.194 27.9494 18.6523C27.9494 16.1107 22.6196 14.0503 16.0449 14.0503C9.47021 14.0503 4.14038 16.1107 4.14038 18.6523C4.14038 21.194 9.47021 23.2544 16.0449 23.2544Z" fill="#A6A8AB"/>
<path d="M6.88011 14.9909C6.01811 15.7286 5.11461 16.4121 4.22061 17.1125C3.42511 17.7334 4.44111 18.8746 5.27511 18.4343C6.05311 18.026 6.82511 17.6254 7.64861 17.3086C7.32111 16.895 6.99211 16.4828 6.66511 16.0691C6.44928 16.408 6.20743 16.7307 5.94161 17.0345C5.36911 17.7329 6.09861 18.9143 6.99611 18.3573C7.59011 17.9902 8.17461 17.623 8.79411 17.2975L7.60461 16.1461C7.39211 16.49 7.22611 16.8393 7.05661 17.2059C6.73911 17.886 7.45961 18.9076 8.24611 18.3583C8.88511 17.9136 9.48961 17.4602 10.0641 16.9381C10.8361 16.2411 9.86011 15.2428 9.01061 15.6153C8.96261 15.6656 8.91761 15.716 8.87161 15.7669C8.76761 16.1519 8.66311 16.5361 8.56011 16.9192C8.90378 16.7086 9.28282 16.5577 9.68011 16.4736C10.5336 16.2343 10.4876 15.1096 9.68011 14.8495C9.60161 14.8238 9.52411 14.7981 9.44611 14.7734V16.3985C9.83411 16.2566 10.2131 16.1733 10.6201 16.0958C10.3956 15.5818 10.1731 15.0674 9.94911 14.555C8.53861 15.2302 4.06861 16.3113 5.65011 18.6625C5.89911 18.2377 6.15011 17.8167 6.40111 17.3934C6.24361 17.3784 6.08661 17.3634 5.92911 17.3474C4.96011 17.1488 4.41411 18.3617 5.25861 18.8887C5.55361 19.0936 5.86611 19.2713 6.19561 19.4195C6.34261 18.8954 6.48861 18.3723 6.63461 17.8482C6.26911 17.871 5.90561 17.8957 5.54111 17.9243C4.41511 18.0071 4.42761 19.5101 5.54111 19.6094C6.69061 19.7107 8.18611 20.0134 9.25961 19.4379C9.60111 19.2529 9.79261 19.0902 10.0476 18.8179C10.2271 18.6257 10.4161 18.444 10.6081 18.2638C11.4801 17.4486 10.3751 18.5031 10.3786 17.8574L11.6881 17.1304C11.5566 17.0548 11.4266 16.9778 11.2961 16.9027C11.1491 17.4259 11.0041 17.949 10.8561 18.4731C11.1541 18.5869 11.4501 18.7002 11.7466 18.8117L12.1866 17.2413C11.7189 17.1885 11.2464 17.1885 10.7786 17.2413C10.1151 17.3135 9.70511 17.9001 10.0271 18.5099C10.5986 19.5896 11.8996 20.0076 13.0521 20.259C14.1446 20.5012 14.6071 18.8761 13.5146 18.6344C12.8336 18.4847 11.8841 18.3249 11.5336 17.6608C11.2816 18.0817 11.0336 18.5046 10.7811 18.9279C11.2489 18.8766 11.7213 18.8766 12.1891 18.9279C13.1036 19.0267 13.3006 17.7673 12.6281 17.3571C12.0441 17.0025 11.5406 16.8616 10.8581 16.7879C9.95761 16.6901 9.73061 17.9567 10.4201 18.3568L10.8111 18.585C11.3826 18.9182 12.1156 18.4895 12.1196 17.8569C12.1296 16.5671 11.1751 15.8671 9.97761 16.599C9.48161 16.9037 9.07011 17.3551 8.68211 17.7732C8.07811 18.4217 6.34311 17.9935 5.54361 17.9238V19.6089C5.90795 19.5822 6.27245 19.5576 6.63711 19.5353C7.44561 19.4825 7.89611 18.3772 7.07711 17.9645C6.74802 17.8166 6.43413 17.6388 6.13961 17.4336C5.91511 17.948 5.69161 18.4605 5.47061 18.9744C5.77753 19.0389 6.09013 19.0747 6.40411 19.0814C7.04311 19.095 7.51361 18.3452 7.15411 17.8119C6.93561 17.4854 10.4136 16.2101 10.8311 16.0115C11.7641 15.5663 11.0771 14.2953 10.1596 14.4712C9.75511 14.5482 9.37611 14.6334 8.98661 14.7739C8.18461 15.0655 8.13711 16.1243 8.98661 16.399C9.06611 16.4242 9.14311 16.4498 9.22161 16.4736V14.8495C8.65761 15.0103 8.17711 15.1541 7.68411 15.4637C7.32611 15.6903 7.07361 16.2411 7.37261 16.6169C8.09261 17.5252 8.84511 17.5319 9.89261 17.0708C9.54061 16.631 9.18861 16.1892 8.83811 15.748C8.37566 16.1636 7.88597 16.5498 7.37211 16.9042L8.56261 18.0575C8.73311 17.6913 8.89661 17.3411 9.11061 16.9972C9.57111 16.2537 8.67061 15.4496 7.91911 15.8439C7.29961 16.1704 6.71561 16.5385 6.12211 16.9042L7.17461 18.227C7.52361 17.7998 7.86261 17.375 8.17211 16.9202C8.56911 16.3365 7.90361 15.4065 7.18861 15.6826C6.22461 16.0556 5.31211 16.5002 4.40061 16.9778C4.75161 17.4205 5.10411 17.8628 5.45611 18.3035C6.34861 17.6051 7.25211 16.9192 8.11361 16.1825C8.95611 15.4627 7.72061 14.2769 6.88261 14.9919" fill="#00A551"/>
<path d="M9.2262 19.5155C9.7572 20.0842 10.4022 20.2978 11.1722 20.4135C11.2492 19.8618 11.3262 19.3097 11.4042 18.7579C11.2394 18.752 11.078 18.7106 10.9317 18.6369C10.8532 19.1895 10.7777 19.7412 10.7007 20.2944C11.7697 20.2949 13.7612 20.4106 14.0942 19.0515C14.4927 17.4264 13.2447 16.1016 11.7922 15.533L11.5597 17.1881H11.7167C12.7412 17.1881 12.8432 15.8459 11.9477 15.533C11.4282 15.3509 10.9297 15.1799 10.4377 14.9367C10.2907 15.4589 10.1457 15.983 9.9977 16.5075C10.4847 16.5318 12.4492 17.0127 12.2872 17.7107C12.1937 18.1099 12.3537 18.431 12.6857 18.6635C13.7712 19.4177 14.8422 20.2842 16.1772 20.5661C17.1652 20.7754 17.6602 19.5678 16.8477 19.0258C16.6883 18.9205 16.5126 18.8405 16.3272 18.7889V20.4135L16.8747 20.2619C17.9502 19.965 17.4912 18.337 16.4112 18.6373C16.2297 18.6892 16.0467 18.7405 15.8632 18.7889C15.0202 19.0229 15.0507 20.1665 15.8632 20.4135C15.8992 20.4363 15.9347 20.4591 15.9687 20.4818C16.1922 19.9669 16.4167 19.4545 16.6397 18.9406C15.4672 18.6911 14.5177 17.8706 13.5652 17.2084L13.9642 18.1607C14.4502 16.0663 11.7672 14.913 9.9972 14.8209C9.1437 14.7774 8.7927 16.0144 9.5582 16.3923C10.1832 16.6989 10.8292 16.9275 11.4867 17.1581C11.5632 16.6059 11.6397 16.0547 11.7182 15.5015H11.5612C10.5127 15.5015 10.4647 16.82 11.3302 17.1581C11.6987 17.3024 12.9977 18.3704 12.1552 18.5695C11.7037 18.6771 11.1637 18.6107 10.7022 18.6078C9.6467 18.6073 9.6137 19.9204 10.4702 20.2619C10.7722 20.384 11.0827 20.4135 11.4062 20.4441C12.3782 20.5385 12.6037 18.9352 11.6372 18.7889C11.1717 18.7182 10.8017 18.6921 10.4572 18.3254C9.7032 17.5175 8.4757 18.7124 9.2282 19.5155" fill="#00A551"/>
<path d="M26.0899 18.8819C25.3429 19.1938 24.5939 19.4961 23.8579 19.8318C23.0839 20.1863 23.4494 21.4665 24.2969 21.4031C25.1329 21.3386 25.9354 21.1628 26.7599 21.0248L25.9139 19.6186C24.8654 20.5142 22.8419 20.32 21.5324 20.3219C20.5694 20.3229 20.3184 21.7848 21.2999 21.9775C22.1984 22.1524 23.0044 22.1369 23.9034 21.9775C24.7329 21.8288 24.7434 20.4905 23.9034 20.3525C22.2479 20.0788 20.6254 20.2285 18.9584 20.3098C17.1704 20.3999 15.3774 20.0977 13.5894 20.0628C12.4509 20.042 12.4939 21.6472 13.5894 21.7479C14.5819 21.8395 15.5144 21.8652 16.4969 21.7184C17.3284 21.5954 17.3364 20.2076 16.4969 20.0938C14.6654 19.8429 11.7914 19.3915 10.2979 20.7419C10.6489 20.6973 11.0004 20.6547 11.3529 20.6097C10.4934 20.2566 9.72042 19.8381 8.77192 19.8046C8.16042 19.7828 7.62042 20.5569 8.02142 21.0718C8.19892 21.3033 8.37842 21.5324 8.55442 21.763C8.95242 21.3789 9.34892 20.9957 9.74492 20.6097C8.45242 19.9296 7.35592 19.1517 5.82742 19.1982C4.98242 19.2248 4.61292 20.3452 5.38842 20.7685C8.24292 22.3306 11.6499 23.1691 14.9284 23.1323C16.0534 23.1187 16.0464 21.4874 14.9284 21.4471C14.3319 21.4234 13.7389 21.3818 13.1419 21.36C12.1719 21.3231 11.9424 22.8339 12.9119 23.0156C15.5459 23.5096 18.1454 23.3081 20.7804 22.9298C21.7729 22.7864 21.5019 21.2733 20.5499 21.2733H19.8344V22.9584C20.9444 22.9555 22.2014 22.9952 23.2084 22.458C23.5889 22.2556 25.6504 20.2488 25.8204 20.3379C26.2394 20.5554 26.7654 20.4416 27.0109 20.0352C27.2209 19.6869 27.4474 19.3556 27.6349 18.9962H26.1349C26.3654 19.2529 26.5439 19.5421 26.6699 19.8608C27.1249 19.5203 27.5814 19.1808 28.0364 18.8402C27.4364 18.1248 26.7479 17.7402 25.8689 17.4133C25.4899 17.2728 25.0879 17.5082 24.8854 17.8003C24.7309 17.9844 24.6139 18.1849 24.5279 18.4062C24.9839 18.3496 25.4384 18.2919 25.8934 18.2348C25.2694 17.7068 24.8204 17.0665 24.1119 16.6339C23.3984 16.2004 22.4089 17.0863 22.9214 17.7862C23.1074 18.041 23.2809 18.2498 23.5044 18.476C23.7859 18.0076 24.0679 17.5373 24.3509 17.0684C23.5119 16.8906 22.7504 16.6349 21.8869 16.6068C21.3349 16.5869 20.8819 17.1614 21.0479 17.6719C21.1429 17.9974 21.2619 18.3152 21.4044 18.6242L22.0129 17.5857C21.7944 17.6642 21.6329 17.7494 21.4519 17.8894C21.1459 18.1263 21.1419 18.6063 21.3149 18.91C21.4519 19.1323 21.5709 19.3634 21.6719 19.6026C21.9989 19.189 22.3284 18.7768 22.6539 18.3641C21.6644 18.1984 20.9684 17.1628 20.2439 16.5506C19.5394 15.9572 18.7829 15.6807 17.8734 15.5673C16.8734 15.4443 16.7329 16.9676 17.6424 17.2224C18.8379 17.5576 20.0244 17.669 21.2649 17.685C22.3999 17.701 22.3679 16.0812 21.2649 15.9994C19.4929 15.8686 19.1344 16.8868 18.0619 17.9756L19.5464 18.5714C19.4764 17.9262 20.8349 17.5586 21.2794 17.4089C22.3829 17.0316 23.2764 17.2084 24.3044 17.7431C25.2939 18.2566 26.1714 16.8015 25.1829 16.2852C23.5544 15.4385 22.1849 15.3116 20.4524 15.904C19.2664 16.3084 17.6504 17.1338 17.8074 18.5685C17.8824 19.2529 18.7214 19.7431 19.2919 19.1638C19.9409 18.506 20.1739 17.6007 21.2654 17.6811V15.9955C20.1804 15.9819 19.1509 15.8875 18.1054 15.5944L17.8739 17.25C19.6749 17.4728 20.3689 19.6816 22.1944 19.9858C22.9764 20.1156 23.5059 19.4457 23.1769 18.7463C23.0769 18.5075 22.9577 18.2767 22.8204 18.056C22.7739 18.3951 22.7289 18.7356 22.6844 19.0761C22.6144 19.1197 22.5474 19.1633 22.4799 19.2064C22.8834 19.064 23.2744 18.6208 23.0864 18.1699C22.9418 17.8622 22.8226 17.544 22.7299 17.2181C22.4494 17.5726 22.1709 17.9296 21.8899 18.2847C22.5829 18.3089 23.2219 18.5457 23.8889 18.6862C24.7329 18.8654 25.3569 17.9069 24.7354 17.2786C24.6319 17.1643 24.5294 17.0471 24.4269 16.9299C24.0284 17.3145 23.6329 17.6991 23.2354 18.0836C23.7989 18.4251 24.1684 19.0006 24.6649 19.4215C25.0514 19.748 25.7799 19.7751 26.0299 19.251C26.1159 19.0311 26.2349 18.8286 26.3884 18.6455C26.0614 18.7763 25.7329 18.9037 25.4059 19.0345C26.0204 19.2616 26.3974 19.5397 26.8069 20.026C27.4654 20.8121 28.5794 19.8129 28.1719 19.0049C28.047 18.6889 27.8657 18.3966 27.6364 18.1413C27.2809 17.6685 26.4594 17.5266 26.1364 18.1413C25.9469 18.5002 25.7234 18.8325 25.5124 19.1808C25.9079 19.0786 26.3064 18.9793 26.7029 18.878C25.7299 18.3709 24.9559 18.5675 24.1879 19.3101C23.6509 19.8259 23.3299 20.3738 22.6919 20.8102C21.8859 21.359 20.7749 21.2674 19.8409 21.2694C18.7199 21.2713 18.7199 22.9545 19.8409 22.9545H20.5559L20.3244 21.2999C18.0139 21.6312 15.6919 21.8172 13.3814 21.3851C13.3029 21.9364 13.2264 22.489 13.1479 23.0398C13.7449 23.0635 14.3374 23.1052 14.9344 23.1284V21.4433C11.9614 21.4752 8.86192 20.7264 6.27092 19.3101C6.12592 19.8351 5.97892 20.3578 5.83292 20.8804C7.01792 20.8451 7.88392 21.5406 8.87342 22.0628C9.57692 22.4329 10.6199 21.6288 10.0629 20.909C9.88542 20.6775 9.70742 20.4479 9.52792 20.2164C9.27692 20.6397 9.02792 21.0626 8.77742 21.4844C9.39592 21.5062 9.92592 21.8337 10.4794 22.0613C10.8554 22.2159 11.2174 22.2139 11.5329 21.9301C12.4179 21.1309 14.9499 21.5668 16.0429 21.7145V20.0899C15.2239 20.2091 14.4164 20.1335 13.5969 20.0589V21.7441C15.2069 21.7746 16.8054 21.9746 18.4164 22.0032C20.1039 22.0342 21.7639 21.6947 23.4464 21.9737V20.3486C22.8954 20.4818 22.319 20.4818 21.7679 20.3486L21.5374 22.0032C23.3984 22.0013 25.6679 22.0725 27.1484 20.8054C27.8669 20.195 27.0814 19.2684 26.3034 19.3978C25.6354 19.5067 24.9814 19.6617 24.3034 19.7136C24.4489 20.2377 24.5964 20.7589 24.7429 21.2829C25.4774 20.9487 26.2274 20.6445 26.9734 20.3341C27.9999 19.9044 27.1119 18.4532 26.0954 18.8809" fill="#F6921E"/>
<path d="M15.1 23.2887C16.1975 23.342 17.294 23.342 18.3915 23.2887C19.3185 23.2417 19.639 21.7697 18.6235 21.6326C17.3655 21.4631 16.124 21.5367 14.861 21.5435C14.9375 22.0967 15.016 22.6464 15.0925 23.1991C15.998 23.0707 16.8525 22.9618 17.694 22.5927C18.7155 22.1432 17.8295 20.693 16.816 21.1395C16.141 21.435 15.354 21.4738 14.6295 21.5755C13.64 21.7169 13.9035 23.2379 14.8605 23.2325C15.955 23.2233 17.073 23.1124 18.162 23.2587C18.238 22.707 18.315 22.1558 18.392 21.6031C17.2956 21.6578 16.1969 21.6578 15.1005 21.6031C13.978 21.5484 13.984 23.2354 15.1005 23.2907" fill="#A87C4F"/>
<path d="M23.2449 18.3863C21.8259 18.798 20.4074 19.0446 18.9269 19.1095C17.9964 19.1502 17.6839 20.6324 18.6954 20.7651C18.9698 20.8043 19.2478 20.8144 19.5244 20.7951C20.4474 20.7346 20.7804 19.2994 19.7579 19.1415C19.692 19.1304 19.626 19.1199 19.5599 19.11C19.7619 19.3052 19.9664 19.5023 20.1674 19.6999C20.1444 20.0075 20.1519 20.0104 20.1854 19.7087C20.1711 19.5799 20.1514 19.4518 20.1264 19.3246C19.9324 18.2546 18.2584 18.7089 18.4489 19.7711C18.3734 19.3512 18.4559 20.0603 18.4909 20.1475C18.6439 20.5219 18.8864 20.7021 19.2949 20.7656C19.3719 20.2134 19.4499 19.6622 19.5249 19.11C19.4026 19.1165 19.2805 19.127 19.1589 19.1415C19.0829 19.6922 19.0054 20.2439 18.9274 20.7951C20.5483 20.7258 22.154 20.462 23.7079 20.0099C24.7799 19.7014 24.3214 18.0739 23.2449 18.3863" fill="#A87C4F"/>
<path d="M15.04 15.7524C16.4785 15.7485 17.9145 15.7069 19.35 15.81C19.2725 15.2583 19.196 14.7057 19.118 14.1549C18.5665 14.2833 17.9995 14.2581 17.434 14.2993C16.475 14.3676 16.2275 15.6778 17.204 15.9544C17.701 16.0963 18.2525 16.137 18.7325 16.3327C18.801 15.8192 18.868 15.3053 18.9395 14.7928C17.9545 15.146 16.963 15.4652 15.9475 15.7204C15.334 15.8745 15.0755 16.7023 15.5635 17.129C15.781 17.3193 15.971 17.5073 16.2185 17.6662V16.213C16.0985 16.2896 15.979 16.3671 15.8595 16.4451C15.4255 16.725 15.2325 17.3964 15.683 17.7693C15.941 17.9834 16.1575 18.2024 16.457 18.3646L16.665 16.8224C16.446 16.9134 16.277 16.9987 16.1015 17.1561C15.7155 17.4991 15.774 18.2561 16.277 18.4794C16.469 18.5637 16.641 18.6373 16.846 18.679C17.94 18.8994 18.4055 17.2758 17.309 17.0549C17.257 17.0442 17.207 17.0336 17.1565 17.0244L17.332 18.3467C17.265 18.3806 17.1965 18.415 17.1285 18.4484C17.776 18.1859 18.0625 17.2985 17.336 16.9067C17.17 16.8166 17.058 16.6945 16.914 16.5744C16.854 17.0156 16.7985 17.4564 16.7375 17.8967C16.858 17.8216 16.977 17.7441 17.097 17.6657C17.6545 17.3063 17.6575 16.5695 17.097 16.2077C16.9994 16.1135 16.8986 16.0224 16.795 15.9345C16.6655 16.4039 16.538 16.8732 16.4095 17.3431C17.425 17.0888 18.4195 16.7676 19.4015 16.4141C20.013 16.1966 20.3795 15.1896 19.6095 14.8752C18.975 14.6151 18.3225 14.5124 17.666 14.3254C17.5895 14.8781 17.5105 15.4303 17.4335 15.981C18.158 15.9306 18.871 15.9432 19.5815 15.7771C20.5815 15.5446 20.288 14.1888 19.3495 14.122C17.914 14.0188 16.478 14.0595 15.0395 14.0634C13.9185 14.0702 13.9185 15.7543 15.0395 15.7524" fill="#A87C4F"/>
<path d="M21.3318 15.9535C22.7063 16.3754 23.9988 16.9799 25.2533 17.6667C25.4758 17.1533 25.6993 16.6393 25.9228 16.1264C25.5683 16.0319 25.2198 16.0155 24.8543 15.9796C24.4658 15.9399 24.1223 16.2678 24.0148 16.5972C24.1733 16.1027 24.7703 16.123 24.3558 16.1346C24.1338 16.1351 23.9098 16.1128 23.6913 16.0939C23.3008 16.0581 22.9123 15.9927 22.5203 15.9796C21.7488 15.953 21.3853 16.9116 21.9053 17.4182C22.3083 17.812 22.7383 17.9278 23.2973 17.9539C24.4208 18.0116 24.4143 16.3264 23.2973 16.2688C23.2453 16.2538 23.1898 16.2402 23.1368 16.2257C22.9308 16.7047 22.7273 17.1843 22.5213 17.6653C23.4748 17.6958 25.2933 18.2896 25.6933 17.0457C25.4138 17.2531 25.1353 17.4589 24.8553 17.6653C25.0593 17.6764 25.2618 17.7059 25.4623 17.7505C26.4118 18.0038 26.9973 16.6844 26.1313 16.2097C24.7503 15.4531 23.3098 14.7915 21.7953 14.3274C20.7193 14 20.2643 15.6289 21.3318 15.9535" fill="#A87C4F"/>
<path d="M26.2149 19.065C26.0254 19.2728 25.8274 19.4671 25.6084 19.6448C25.6619 19.609 25.6454 19.6201 25.5599 19.6807C25.5084 19.716 25.4564 19.749 25.4039 19.7829C25.3501 19.815 25.2954 19.8459 25.2399 19.8754C25.2544 19.8657 24.9794 19.9999 25.1034 19.949C24.6664 20.1258 24.3589 20.4997 24.4949 20.9861C24.6089 21.3852 25.1274 21.7528 25.5654 21.5746C26.3049 21.2747 26.9134 20.8378 27.4474 20.2566C27.7619 19.9132 27.7954 19.4031 27.4474 19.0645C27.1249 18.756 26.5294 18.7216 26.2149 19.0645" fill="#A87C4F"/>
<path d="M7.9794 21.0843C8.4399 21.0848 8.8964 21.1449 9.3544 21.2016C9.8264 21.2582 10.2234 20.7739 10.2234 20.3587C10.2234 19.8545 9.8244 19.5731 9.3544 19.515C8.8964 19.4602 8.4399 19.4036 7.9794 19.3992C7.5029 19.3953 7.1084 19.7867 7.1084 20.2435C7.1084 20.7056 7.5029 21.0805 7.9794 21.0843Z" fill="#A87C4F"/>
<path d="M12.0178 -4.44089C9.37235 -3.25611 8.26785 -1.09531 9.50785 1.3101C10.2478 2.7453 11.4243 3.98143 12.3813 5.31055C13.6023 7.00974 13.5788 8.5641 12.6088 10.3592C12.2308 11.0562 13.4378 11.667 13.8178 10.9656C15.1888 8.4338 14.8988 6.43963 13.1693 4.12625C11.3113 1.63996 8.42035 -1.47651 12.7253 -3.40336C13.5278 -3.76276 12.8183 -4.80029 12.0183 -4.44234" fill="#E6E7E8"/>
<path d="M16.6068 12.3674C17.8518 11.0194 18.1368 9.65586 17.5013 8.01964C16.8053 6.22939 15.4313 4.77384 15.4088 2.81115C15.3893 1.18607 16.3278 -0.397349 16.9808 -1.88583C17.6508 -3.41501 17.9858 -4.94515 17.6263 -6.56586C17.4593 -7.32585 16.1113 -7.00422 16.2748 -6.24666C16.9173 -3.32588 14.5393 -0.788239 14.0808 2.01678C13.8683 3.32314 14.1583 4.60092 14.7823 5.79684C15.7633 7.67476 17.3948 9.59046 15.6148 11.5178C15.0608 12.1189 16.0453 12.9709 16.6068 12.3664" fill="#E6E7E8"/>
<path d="M20.9243 10.5005C20.9078 9.18062 20.7053 7.97453 20.2053 6.72532C19.9703 6.14214 19.5698 5.63063 19.3518 5.03921C19.1328 4.44682 19.5683 3.74545 19.8838 3.25187C20.9433 1.59821 22.0598 0.301541 20.9213 -1.58026C20.5028 -2.26904 19.2948 -1.66115 19.7078 -0.975271C20.8198 0.860025 18.4833 2.34609 17.9988 4.06271C17.7478 4.94718 18.1103 5.73865 18.5583 6.52285C19.2823 7.79676 19.5028 9.09489 19.5193 10.5005C19.5323 11.2751 20.9343 11.2751 20.9243 10.5005Z" fill="#E6E7E8"/>
</g>
<defs>
<clipPath id="clip0">
<rect width="32" height="31" fill="white"/>
</clipPath>
</defs>
</svg>
