<svg width="288" height="205" viewBox="0 0 288 205" fill="none" xmlns="http://www.w3.org/2000/svg">
<path d="M288 134.369C235.36 123.443 246.792 82.4047 259.088 63.2516L225.191 44.8834C215.72 56.3439 200.466 88.496 215.221 125.421C229.976 162.346 269.888 172.205 288 172.519V134.369Z" fill="#FB9300"/>
<path d="M248.956 0.566306C252.944 8.10197 242.642 22.9403 236.993 29.22L272.884 47.5882C282.056 39.6757 285.678 25.1382 286.343 18.8585C285.844 5.74711 271.887 -2.25957 248.956 0.566306Z" fill="#523B5D"/>
<path d="M78.1055 160.728C52.1803 168.264 33.7335 193.383 27.7507 205H75.6127C99.9425 185.784 124.97 196.993 134.443 205H180.311C167.149 179.756 149.898 167.793 139.429 163.554C120.368 155.837 90.7357 157.117 78.1055 160.728Z" fill="#00AEC8"/>
<path d="M51.1831 44.8383C25.2579 37.3026 6.81111 12.1838 0.828369 0.566288H48.6903C73.0201 19.7822 98.0479 8.57292 107.521 0.566288H153.388C140.226 25.8108 122.976 37.7736 112.506 42.0124C93.4461 49.7291 63.8133 48.4491 51.1831 44.8383Z" fill="#00A650"/>
</svg>
